<svg xmlns="http://www.w3.org/2000/svg" width="121.2" height="121.2" viewBox="0 0 62.67 62.67" class="tikzfig" data-fig="icon-elektrostatik"><style>.tikzfig{--f-fg:var(--dark,#2b2b2b);--f-mu:color-mix(in srgb,var(--gray,#b8b8b8) 55%,var(--darkgray,#4e4e4e));--f-acc:var(--secondary,#4a6a00);--f-blue:var(--fig-blue,#2563a8);--f-warm:var(--fig-warm,#b8432b);--f-bg:var(--light,#faf8f8)}@media (prefers-color-scheme:dark){.tikzfig{--f-fg:var(--dark,#ebebec);--f-mu:color-mix(in srgb,var(--gray,#646464) 55%,var(--darkgray,#d4d4d4));--f-acc:var(--secondary,#d7ff1a);--f-blue:var(--fig-blue,#7aa7ff);--f-warm:var(--fig-warm,#ff8f6b);--f-bg:var(--light,#161618)}}</style>
<defs>
<clipPath id="icon-elektrostatik-clip-0">
<path clip-rule="nonzero" d="M 39 15 L 62.33 15 L 62.33 47 L 39 47 Z M 39 15 "/>
</clipPath>
<clipPath id="icon-elektrostatik-clip-1">
<path clip-rule="nonzero" d="M 31 0 L 62.33 0 L 62.33 31 L 31 31 Z M 31 0 "/>
</clipPath>
<clipPath id="icon-elektrostatik-clip-2">
<path clip-rule="nonzero" d="M 0 31 L 31 31 L 31 62.33 L 0 62.33 Z M 0 31 "/>
</clipPath>
<clipPath id="icon-elektrostatik-clip-3">
<path clip-rule="nonzero" d="M 15 39 L 47 39 L 47 62.33 L 15 62.33 Z M 15 39 "/>
</clipPath>
<clipPath id="icon-elektrostatik-clip-4">
<path clip-rule="nonzero" d="M 31 31 L 62.33 31 L 62.33 62.33 L 31 62.33 Z M 31 31 "/>
</clipPath>
</defs>
<path fill="none" stroke-width="1.59" stroke-linecap="round" stroke-linejoin="round" stroke-opacity="1" stroke-miterlimit="10" d="M 11.90 -0.00 L 23.28 -0.00 " transform="matrix(0.99, 0, 0, -0.99, 31.17, 31.17)" style="stroke:var(--f-fg)"/>
<path fill-rule="nonzero" fill-opacity="1" d="M 56.65 31.17 L 53.53 29.85 L 54.58 31.17 L 53.53 32.48 Z M 56.65 31.17 " style="fill:var(--f-fg)"/>
<g clip-path="url(#icon-elektrostatik-clip-0)">
<path fill="none" stroke-width="1.00" stroke-linecap="round" stroke-linejoin="miter" stroke-opacity="1" stroke-miterlimit="10" d="M 4.66 -0.00 L 1.52 1.32 L 2.58 -0.00 L 1.52 -1.32 Z M 4.66 -0.00 " transform="matrix(0.99, 0, 0, -0.99, 52.01, 31.17)" style="stroke:var(--f-fg)"/>
</g>
<path fill="none" stroke-width="1.59" stroke-linecap="round" stroke-linejoin="round" stroke-opacity="1" stroke-miterlimit="10" d="M 8.41 8.41 L 16.46 16.46 " transform="matrix(0.99, 0, 0, -0.99, 31.17, 31.17)" style="stroke:var(--f-fg)"/>
<path fill-rule="nonzero" fill-opacity="1" d="M 49.19 13.15 L 46.05 14.42 L 47.72 14.61 L 47.91 16.29 Z M 49.19 13.15 " style="fill:var(--f-fg)"/>
<g clip-path="url(#icon-elektrostatik-clip-1)">
<path fill="none" stroke-width="1.00" stroke-linecap="round" stroke-linejoin="miter" stroke-opacity="1" stroke-miterlimit="10" d="M 4.66 -0.00 L 1.52 1.32 L 2.58 -0.00 L 1.52 -1.32 Z M 4.66 -0.00 " transform="matrix(0.70, -0.70, -0.70, -0.70, 45.90, 16.43)" style="stroke:var(--f-fg)"/>
</g>
<path fill="none" stroke-width="1.59" stroke-linecap="round" stroke-linejoin="round" stroke-opacity="1" stroke-miterlimit="10" d="M 0.00 11.90 L 0.00 23.28 " transform="matrix(0.99, 0, 0, -0.99, 31.17, 31.17)" style="stroke:var(--f-fg)"/>
<path fill-rule="nonzero" fill-opacity="1" stroke-width="1.00" stroke-linecap="round" stroke-linejoin="miter" stroke-opacity="1" stroke-miterlimit="10" d="M 4.66 -0.00 L 1.52 1.32 L 2.58 -0.00 L 1.52 -1.32 Z M 4.66 -0.00 " transform="matrix(0, -0.99, -0.99, 0, 31.17, 10.32)" style="fill:var(--f-fg);stroke:var(--f-fg)"/>
<path fill="none" stroke-width="1.59" stroke-linecap="round" stroke-linejoin="round" stroke-opacity="1" stroke-miterlimit="10" d="M -8.41 8.41 L -16.46 16.46 " transform="matrix(0.99, 0, 0, -0.99, 31.17, 31.17)" style="stroke:var(--f-fg)"/>
<path fill-rule="nonzero" fill-opacity="1" stroke-width="1.00" stroke-linecap="round" stroke-linejoin="miter" stroke-opacity="1" stroke-miterlimit="10" d="M 4.66 0.00 L 1.52 1.32 L 2.58 0.00 L 1.52 -1.32 Z M 4.66 0.00 " transform="matrix(-0.70, -0.70, -0.70, 0.70, 16.43, 16.43)" style="fill:var(--f-fg);stroke:var(--f-fg)"/>
<path fill="none" stroke-width="1.59" stroke-linecap="round" stroke-linejoin="round" stroke-opacity="1" stroke-miterlimit="10" d="M -11.90 -0.00 L -23.28 -0.00 " transform="matrix(0.99, 0, 0, -0.99, 31.17, 31.17)" style="stroke:var(--f-fg)"/>
<path fill-rule="nonzero" fill-opacity="1" stroke-width="1.00" stroke-linecap="round" stroke-linejoin="miter" stroke-opacity="1" stroke-miterlimit="10" d="M 4.66 0.00 L 1.52 1.32 L 2.58 0.00 L 1.52 -1.32 Z M 4.66 0.00 " transform="matrix(-0.99, 0, 0, 0.99, 10.32, 31.17)" style="fill:var(--f-fg);stroke:var(--f-fg)"/>
<path fill="none" stroke-width="1.59" stroke-linecap="round" stroke-linejoin="round" stroke-opacity="1" stroke-miterlimit="10" d="M -8.41 -8.42 L -16.46 -16.46 " transform="matrix(0.99, 0, 0, -0.99, 31.17, 31.17)" style="stroke:var(--f-fg)"/>
<path fill-rule="nonzero" fill-opacity="1" d="M 13.15 49.19 L 16.29 47.91 L 14.61 47.72 L 14.42 46.05 Z M 13.15 49.19 " style="fill:var(--f-fg)"/>
<g clip-path="url(#icon-elektrostatik-clip-2)">
<path fill="none" stroke-width="1.00" stroke-linecap="round" stroke-linejoin="miter" stroke-opacity="1" stroke-miterlimit="10" d="M 4.66 0.00 L 1.52 1.32 L 2.58 -0.00 L 1.52 -1.32 Z M 4.66 0.00 " transform="matrix(-0.70, 0.70, 0.70, 0.70, 16.43, 45.90)" style="stroke:var(--f-fg)"/>
</g>
<path fill="none" stroke-width="1.59" stroke-linecap="round" stroke-linejoin="round" stroke-opacity="1" stroke-miterlimit="10" d="M 0.00 -11.90 L 0.00 -23.28 " transform="matrix(0.99, 0, 0, -0.99, 31.17, 31.17)" style="stroke:var(--f-fg)"/>
<path fill-rule="nonzero" fill-opacity="1" d="M 31.17 56.65 L 32.48 53.53 L 31.17 54.58 L 29.85 53.53 Z M 31.17 56.65 " style="fill:var(--f-fg)"/>
<g clip-path="url(#icon-elektrostatik-clip-3)">
<path fill="none" stroke-width="1.00" stroke-linecap="round" stroke-linejoin="miter" stroke-opacity="1" stroke-miterlimit="10" d="M 4.66 0.00 L 1.52 1.32 L 2.58 0.00 L 1.52 -1.32 Z M 4.66 0.00 " transform="matrix(0, 0.99, 0.99, 0, 31.17, 52.01)" style="stroke:var(--f-fg)"/>
</g>
<path fill="none" stroke-width="1.59" stroke-linecap="round" stroke-linejoin="round" stroke-opacity="1" stroke-miterlimit="10" d="M 8.41 -8.42 L 16.46 -16.46 " transform="matrix(0.99, 0, 0, -0.99, 31.17, 31.17)" style="stroke:var(--f-fg)"/>
<path fill-rule="nonzero" fill-opacity="1" d="M 49.19 49.19 L 47.91 46.05 L 47.72 47.72 L 46.05 47.91 Z M 49.19 49.19 " style="fill:var(--f-fg)"/>
<g clip-path="url(#icon-elektrostatik-clip-4)">
<path fill="none" stroke-width="1.00" stroke-linecap="round" stroke-linejoin="miter" stroke-opacity="1" stroke-miterlimit="10" d="M 4.66 -0.00 L 1.52 1.32 L 2.58 0.00 L 1.52 -1.32 Z M 4.66 -0.00 " transform="matrix(0.70, 0.70, 0.70, -0.70, 45.90, 45.90)" style="stroke:var(--f-fg)"/>
</g>
<path fill-rule="nonzero" fill-opacity="0.25" stroke-width="1.59" stroke-linecap="round" stroke-linejoin="round" stroke-opacity="1" stroke-miterlimit="10" d="M 7.37 -0.00 C 7.37 4.07 4.06 7.36 0.00 7.36 C -4.07 7.36 -7.36 4.07 -7.36 -0.00 C -7.36 -4.06 -4.07 -7.37 0.00 -7.37 C 4.06 -7.37 7.37 -4.06 7.37 -0.00 Z M 7.37 -0.00 " transform="matrix(0.99, 0, 0, -0.99, 31.17, 31.17)" style="fill:var(--f-acc);stroke:var(--f-acc)"/>
<path fill="none" stroke-width="1.59" stroke-linecap="round" stroke-linejoin="round" stroke-opacity="1" stroke-miterlimit="10" d="M 7.37 -0.00 C 7.37 4.07 4.06 7.36 0.00 7.36 C -4.07 7.36 -7.36 4.07 -7.36 -0.00 C -7.36 -4.06 -4.07 -7.37 0.00 -7.37 C 4.06 -7.37 7.37 -4.06 7.37 -0.00 Z M 7.37 -0.00 " transform="matrix(0.99, 0, 0, -0.99, 31.17, 31.17)" style="stroke:var(--f-acc)"/>
<path fill="none" stroke-width="1.39" stroke-linecap="round" stroke-linejoin="round" stroke-opacity="1" stroke-miterlimit="10" d="M -3.39 -0.00 L 3.40 -0.00 M 0.00 -3.40 L 0.00 3.40 " transform="matrix(0.99, 0, 0, -0.99, 31.17, 31.17)" style="stroke:var(--f-acc)"/>
</svg>
