<svg xmlns="http://www.w3.org/2000/svg" width="121.2" height="121.2" viewBox="0 0 62.67 62.67" class="tikzfig" data-fig="icon-randwertprobleme"><style>.tikzfig{--f-fg:var(--dark,#2b2b2b);--f-mu:color-mix(in srgb,var(--gray,#b8b8b8) 55%,var(--darkgray,#4e4e4e));--f-acc:var(--secondary,#4a6a00);--f-blue:var(--fig-blue,#2563a8);--f-warm:var(--fig-warm,#b8432b);--f-bg:var(--light,#faf8f8)}@media (prefers-color-scheme:dark){.tikzfig{--f-fg:var(--dark,#ebebec);--f-mu:color-mix(in srgb,var(--gray,#646464) 55%,var(--darkgray,#d4d4d4));--f-acc:var(--secondary,#d7ff1a);--f-blue:var(--fig-blue,#7aa7ff);--f-warm:var(--fig-warm,#ff8f6b);--f-bg:var(--light,#161618)}}</style>
<defs>
<clipPath id="icon-randwertprobleme-clip-0">
<path clip-rule="nonzero" d="M 32 11 L 62.33 11 L 62.33 43 L 32 43 Z M 32 11 "/>
</clipPath>
</defs>
<path fill="none" stroke-width="1.59" stroke-linecap="round" stroke-linejoin="round" stroke-opacity="1" stroke-miterlimit="10" d="M -26.92 -0.00 L 26.93 -0.00 " transform="matrix(0.99, 0, 0, -0.99, 31.17, 31.17)" style="stroke:var(--f-fg)"/>
<path fill-rule="nonzero" fill-opacity="0.25" stroke-width="1.59" stroke-linecap="round" stroke-linejoin="round" stroke-opacity="1" stroke-miterlimit="10" d="M 5.67 15.59 C 5.67 18.72 3.13 21.25 0.00 21.25 C -3.13 21.25 -5.66 18.72 -5.66 15.59 C -5.66 12.45 -3.13 9.92 0.00 9.92 C 3.13 9.92 5.67 12.45 5.67 15.59 Z M 5.67 15.59 " transform="matrix(0.99, 0, 0, -0.99, 31.17, 31.17)" style="fill:var(--f-acc);stroke:var(--f-acc)"/>
<path fill="none" stroke-width="1.59" stroke-linecap="round" stroke-linejoin="round" stroke-opacity="1" stroke-miterlimit="10" d="M 5.67 15.59 C 5.67 18.72 3.13 21.25 0.00 21.25 C -3.13 21.25 -5.66 18.72 -5.66 15.59 C -5.66 12.45 -3.13 9.92 0.00 9.92 C 3.13 9.92 5.67 12.45 5.67 15.59 Z M 5.67 15.59 " transform="matrix(0.99, 0, 0, -0.99, 31.17, 31.17)" style="stroke:var(--f-acc)"/>
<path fill="none" stroke-width="1.59" stroke-linecap="round" stroke-linejoin="round" stroke-opacity="1" stroke-dasharray="2.49 1.99" stroke-miterlimit="10" d="M 5.67 -15.59 C 5.67 -12.46 3.13 -9.92 0.00 -9.92 C -3.13 -9.92 -5.66 -12.46 -5.66 -15.59 C -5.66 -18.72 -3.13 -21.26 0.00 -21.26 C 3.13 -21.26 5.67 -18.72 5.67 -15.59 Z M 5.67 -15.59 " transform="matrix(0.99, 0, 0, -0.99, 31.17, 31.17)" style="stroke:var(--f-mu)"/>
<path fill="none" stroke-width="1.59" stroke-linecap="round" stroke-linejoin="round" stroke-opacity="1" stroke-miterlimit="10" d="M -5.66 12.75 C -11.65 10.57 -17.01 7.49 -17.01 4.78 " transform="matrix(0.99, 0, 0, -0.99, 31.17, 31.17)" style="stroke:var(--f-fg)"/>
<path fill-rule="nonzero" fill-opacity="1" stroke-width="1.00" stroke-linecap="round" stroke-linejoin="miter" stroke-opacity="1" stroke-miterlimit="10" d="M 4.66 -0.00 L 1.52 1.32 L 2.58 -0.00 L 1.52 -1.32 Z M 4.66 -0.00 " transform="matrix(0, 0.99, 0.99, 0, 14.25, 24.09)" style="fill:var(--f-fg);stroke:var(--f-fg)"/>
<path fill="none" stroke-width="1.59" stroke-linecap="round" stroke-linejoin="round" stroke-opacity="1" stroke-miterlimit="10" d="M 5.67 12.75 C 11.65 10.57 17.00 7.49 17.00 4.78 " transform="matrix(0.99, 0, 0, -0.99, 31.17, 31.17)" style="stroke:var(--f-fg)"/>
<path fill-rule="nonzero" fill-opacity="1" d="M 48.08 28.73 L 49.41 25.61 L 48.08 26.66 L 46.76 25.61 Z M 48.08 28.73 " style="fill:var(--f-fg)"/>
<g clip-path="url(#icon-randwertprobleme-clip-0)">
<path fill="none" stroke-width="1.00" stroke-linecap="round" stroke-linejoin="miter" stroke-opacity="1" stroke-miterlimit="10" d="M 4.66 -0.00 L 1.52 1.32 L 2.58 -0.00 L 1.52 -1.32 Z M 4.66 -0.00 " transform="matrix(0, 0.99, 0.99, 0, 48.09, 24.09)" style="stroke:var(--f-fg)"/>
</g>
<path fill="none" stroke-width="1.59" stroke-linecap="round" stroke-linejoin="round" stroke-opacity="1" stroke-miterlimit="10" d="M 0.00 9.35 L 0.00 4.78 " transform="matrix(0.99, 0, 0, -0.99, 31.17, 31.17)" style="stroke:var(--f-fg)"/>
<path fill-rule="nonzero" fill-opacity="1" stroke-width="1.00" stroke-linecap="round" stroke-linejoin="miter" stroke-opacity="1" stroke-miterlimit="10" d="M 4.66 0.00 L 1.52 1.32 L 2.58 0.00 L 1.52 -1.32 Z M 4.66 0.00 " transform="matrix(0, 0.99, 0.99, 0, 31.17, 24.09)" style="fill:var(--f-fg);stroke:var(--f-fg)"/>
</svg>
